<svg xmlns="http://www.w3.org/2000/svg" viewBox="0 0 64 64" width="64" height="64" fill="none" role="img" aria-label="Purple diamond">
  <title>Purple diamond</title>
  <defs>
    <linearGradient id="diaFill" x1="18%" y1="8%" x2="82%" y2="92%">
      <stop offset="0%" stop-color="#FFFFFF"/>
      <stop offset="42%" stop-color="#FFB6D9"/>
      <stop offset="100%" stop-color="#FF4FA3"/>
    </linearGradient>
  </defs>
  <!-- Solid royal pink + white — no backlight / neon glow -->
  <path d="M22 10 H42 L54 26 L32 54 L10 26 Z" fill="url(#diaFill)" opacity="0.95"/>
  <g stroke="#FFFFFF" stroke-linejoin="round" stroke-linecap="round" fill="none">
    <path d="M22 10 H42 L54 26 L32 54 L10 26 Z" stroke-width="3.2"/>
  </g>
  <g stroke="#FF4FA3" stroke-linejoin="round" stroke-linecap="round" fill="none">
    <path d="M22 10 H42 L54 26 L32 54 L10 26 Z" stroke-width="2.1"/>
    <path d="M10 26 H54" stroke-width="2"/>
    <path d="M22 10 L32 26" stroke-width="1.9"/>
    <path d="M42 10 L32 26" stroke-width="1.9"/>
    <path d="M32 10 L10 26" stroke-width="1.8"/>
    <path d="M32 10 L54 26" stroke-width="1.8"/>
    <path d="M21 26 L32 54" stroke-width="1.9"/>
    <path d="M43 26 L32 54" stroke-width="1.9"/>
  </g>
  <path d="M26 14 L38 14" stroke="#FFFFFF" stroke-width="1.6" stroke-linecap="round" opacity="0.95"/>
</svg>
